<svg width="398" height="412" viewBox="0 0 398 412" fill="none" xmlns="http://www.w3.org/2000/svg">
<circle cx="37" cy="75" r="1" fill="black"/>
<circle cx="37" cy="3" r="1" fill="black"/>
<circle cx="37" cy="291" r="1" fill="black"/>
<circle cx="37" cy="255" r="1" fill="black"/>
<circle cx="37" cy="219" r="1" fill="black"/>
<circle cx="37" cy="183" r="1" fill="black"/>
<circle cx="37" cy="147" r="1" fill="black"/>
<circle cx="37" cy="111" r="1" fill="black"/>
<circle cx="37" cy="39" r="1" fill="black"/>
<circle cx="37" cy="325" r="1" fill="black"/>
<circle cx="37" cy="359" r="1" fill="black"/>
<circle cx="19" cy="359" r="1" fill="black"/>
<circle cx="1" cy="359" r="1" fill="black"/>
<circle cx="37" cy="393" r="1" fill="black"/>
<circle cx="19" cy="393" r="1" fill="black"/>
<circle cx="1" cy="393" r="1" fill="black"/>
<circle cx="55" cy="291" r="1" fill="black"/>
<circle cx="55" cy="255" r="1" fill="black"/>
<circle cx="55" cy="219" r="1" fill="black"/>
<circle cx="55" cy="183" r="1" fill="black"/>
<circle cx="55" cy="147" r="1" fill="black"/>
<circle cx="55" cy="111" r="1" fill="black"/>
<circle cx="55" cy="39" r="1" fill="black"/>
<circle cx="55" cy="325" r="1" fill="black"/>
<circle cx="55" cy="359" r="1" fill="black"/>
<circle cx="55" cy="393" r="1" fill="black"/>
<circle cx="73" cy="291" r="1" fill="black"/>
<circle cx="73" cy="255" r="1" fill="black"/>
<circle cx="73" cy="219" r="1" fill="black"/>
<circle cx="73" cy="183" r="1" fill="black"/>
<circle cx="73" cy="147" r="1" fill="black"/>
<circle cx="73" cy="111" r="1" fill="black"/>
<circle cx="73" cy="39" r="1" fill="black"/>
<circle cx="73" cy="325" r="1" fill="black"/>
<circle cx="73" cy="359" r="1" fill="black"/>
<circle cx="73" cy="393" r="1" fill="black"/>
<circle cx="91" cy="291" r="1" fill="black"/>
<circle cx="91" cy="255" r="1" fill="black"/>
<circle cx="91" cy="219" r="1" fill="black"/>
<circle cx="91" cy="183" r="1" fill="black"/>
<circle cx="91" cy="147" r="1" fill="black"/>
<circle cx="91" cy="111" r="1" fill="black"/>
<circle cx="91" cy="39" r="1" fill="black"/>
<circle cx="91" cy="325" r="1" fill="black"/>
<circle cx="91" cy="359" r="1" fill="black"/>
<circle cx="91" cy="393" r="1" fill="black"/>
<circle cx="109" cy="291" r="1" fill="black"/>
<circle cx="109" cy="255" r="1" fill="black"/>
<circle cx="109" cy="219" r="1" fill="black"/>
<circle cx="109" cy="183" r="1" fill="black"/>
<circle cx="109" cy="147" r="1" fill="black"/>
<circle cx="109" cy="111" r="1" fill="black"/>
<circle cx="109" cy="39" r="1" fill="black"/>
<circle cx="109" cy="325" r="1" fill="black"/>
<circle cx="109" cy="359" r="1" fill="black"/>
<circle cx="109" cy="393" r="1" fill="black"/>
<circle cx="127" cy="291" r="1" fill="black"/>
<circle cx="127" cy="255" r="1" fill="black"/>
<circle cx="127" cy="219" r="1" fill="black"/>
<circle cx="127" cy="183" r="1" fill="black"/>
<circle cx="127" cy="147" r="1" fill="black"/>
<circle cx="127" cy="111" r="1" fill="black"/>
<circle cx="127" cy="39" r="1" fill="black"/>
<circle cx="127" cy="75" r="1" fill="black"/>
<circle cx="127" cy="3" r="1" fill="black"/>
<circle cx="127" cy="325" r="1" fill="black"/>
<circle cx="127" cy="359" r="1" fill="black"/>
<circle cx="127" cy="393" r="1" fill="black"/>
<circle cx="145" cy="291" r="1" fill="black"/>
<circle cx="145" cy="255" r="1" fill="black"/>
<circle cx="145" cy="219" r="1" fill="black"/>
<circle cx="145" cy="183" r="1" fill="black"/>
<circle cx="145" cy="147" r="1" fill="black"/>
<circle cx="145" cy="111" r="1" fill="black"/>
<circle cx="145" cy="39" r="1" fill="black"/>
<circle cx="145" cy="75" r="1" fill="black"/>
<circle cx="145" cy="3" r="1" fill="black"/>
<circle cx="145" cy="325" r="1" fill="black"/>
<circle cx="145" cy="359" r="1" fill="black"/>
<circle cx="145" cy="393" r="1" fill="black"/>
<circle cx="163" cy="291" r="1" fill="black"/>
<circle cx="163" cy="255" r="1" fill="black"/>
<circle cx="163" cy="219" r="1" fill="black"/>
<circle cx="163" cy="183" r="1" fill="black"/>
<circle cx="163" cy="147" r="1" fill="black"/>
<circle cx="163" cy="111" r="1" fill="black"/>
<circle cx="163" cy="39" r="1" fill="black"/>
<circle cx="163" cy="75" r="1" fill="black"/>
<circle cx="163" cy="3" r="1" fill="black"/>
<circle cx="163" cy="325" r="1" fill="black"/>
<circle cx="163" cy="359" r="1" fill="black"/>
<circle cx="163" cy="393" r="1" fill="black"/>
<circle cx="181" cy="291" r="1" fill="black"/>
<circle cx="181" cy="255" r="1" fill="black"/>
<circle cx="181" cy="219" r="1" fill="black"/>
<circle cx="181" cy="183" r="1" fill="black"/>
<circle cx="181" cy="147" r="1" fill="black"/>
<circle cx="181" cy="111" r="1" fill="black"/>
<circle cx="181" cy="39" r="1" fill="black"/>
<circle cx="181" cy="75" r="1" fill="black"/>
<circle cx="181" cy="3" r="1" fill="black"/>
<circle cx="181" cy="325" r="1" fill="black"/>
<circle cx="181" cy="359" r="1" fill="black"/>
<circle cx="181" cy="393" r="1" fill="black"/>
<circle cx="199" cy="291" r="1" fill="black"/>
<circle cx="199" cy="255" r="1" fill="black"/>
<circle cx="199" cy="219" r="1" fill="black"/>
<circle cx="199" cy="183" r="1" fill="black"/>
<circle cx="199" cy="147" r="1" fill="black"/>
<circle cx="199" cy="111" r="1" fill="black"/>
<circle cx="199" cy="39" r="1" fill="black"/>
<circle cx="199" cy="75" r="1" fill="black"/>
<circle cx="199" cy="3" r="1" fill="black"/>
<circle cx="199" cy="325" r="1" fill="black"/>
<circle cx="199" cy="359" r="1" fill="black"/>
<circle cx="199" cy="393" r="1" fill="black"/>
<circle cx="217" cy="291" r="1" fill="black"/>
<circle cx="217" cy="255" r="1" fill="black"/>
<circle cx="217" cy="219" r="1" fill="black"/>
<circle cx="217" cy="183" r="1" fill="black"/>
<circle cx="217" cy="147" r="1" fill="black"/>
<circle cx="217" cy="111" r="1" fill="black"/>
<circle cx="217" cy="39" r="1" fill="black"/>
<circle cx="217" cy="75" r="1" fill="black"/>
<circle cx="217" cy="3" r="1" fill="black"/>
<circle cx="217" cy="325" r="1" fill="black"/>
<circle cx="217" cy="359" r="1" fill="black"/>
<circle cx="217" cy="393" r="1" fill="black"/>
<circle cx="235" cy="291" r="1" fill="black"/>
<circle cx="235" cy="255" r="1" fill="black"/>
<circle cx="235" cy="219" r="1" fill="black"/>
<circle cx="235" cy="183" r="1" fill="black"/>
<circle cx="235" cy="147" r="1" fill="black"/>
<circle cx="235" cy="111" r="1" fill="black"/>
<circle cx="235" cy="39" r="1" fill="black"/>
<circle cx="235" cy="75" r="1" fill="black"/>
<circle cx="235" cy="3" r="1" fill="black"/>
<circle cx="235" cy="325" r="1" fill="black"/>
<circle cx="235" cy="359" r="1" fill="black"/>
<circle cx="235" cy="393" r="1" fill="black"/>
<circle cx="253" cy="291" r="1" fill="black"/>
<circle cx="253" cy="255" r="1" fill="black"/>
<circle cx="253" cy="219" r="1" fill="black"/>
<circle cx="253" cy="183" r="1" fill="black"/>
<circle cx="253" cy="147" r="1" fill="black"/>
<circle cx="253" cy="111" r="1" fill="black"/>
<circle cx="253" cy="39" r="1" fill="black"/>
<circle cx="253" cy="75" r="1" fill="black"/>
<circle cx="253" cy="3" r="1" fill="black"/>
<circle cx="253" cy="325" r="1" fill="black"/>
<circle cx="253" cy="359" r="1" fill="black"/>
<circle cx="253" cy="393" r="1" fill="black"/>
<circle cx="271" cy="291" r="1" fill="black"/>
<circle cx="271" cy="255" r="1" fill="black"/>
<circle cx="271" cy="219" r="1" fill="black"/>
<circle cx="271" cy="183" r="1" fill="black"/>
<circle cx="271" cy="147" r="1" fill="black"/>
<circle cx="271" cy="111" r="1" fill="black"/>
<circle cx="271" cy="39" r="1" fill="black"/>
<circle cx="271" cy="75" r="1" fill="black"/>
<circle cx="271" cy="3" r="1" fill="black"/>
<circle cx="271" cy="325" r="1" fill="black"/>
<circle cx="271" cy="359" r="1" fill="black"/>
<circle cx="271" cy="393" r="1" fill="black"/>
<circle cx="289" cy="291" r="1" fill="black"/>
<circle cx="289" cy="255" r="1" fill="black"/>
<circle cx="289" cy="219" r="1" fill="black"/>
<circle cx="289" cy="183" r="1" fill="black"/>
<circle cx="289" cy="147" r="1" fill="black"/>
<circle cx="289" cy="111" r="1" fill="black"/>
<circle cx="289" cy="39" r="1" fill="black"/>
<circle cx="289" cy="75" r="1" fill="black"/>
<circle cx="289" cy="3" r="1" fill="black"/>
<circle cx="289" cy="325" r="1" fill="black"/>
<circle cx="289" cy="359" r="1" fill="black"/>
<circle cx="289" cy="393" r="1" fill="black"/>
<circle cx="307" cy="291" r="1" fill="black"/>
<circle cx="307" cy="255" r="1" fill="black"/>
<circle cx="307" cy="219" r="1" fill="black"/>
<circle cx="307" cy="183" r="1" fill="black"/>
<circle cx="307" cy="147" r="1" fill="black"/>
<circle cx="307" cy="111" r="1" fill="black"/>
<circle cx="307" cy="39" r="1" fill="black"/>
<circle cx="307" cy="75" r="1" fill="black"/>
<circle cx="307" cy="3" r="1" fill="black"/>
<circle cx="307" cy="325" r="1" fill="black"/>
<circle cx="307" cy="359" r="1" fill="black"/>
<circle cx="307" cy="393" r="1" fill="black"/>
<circle cx="325" cy="291" r="1" fill="black"/>
<circle cx="325" cy="255" r="1" fill="black"/>
<circle cx="325" cy="219" r="1" fill="black"/>
<circle cx="325" cy="183" r="1" fill="black"/>
<circle cx="325" cy="147" r="1" fill="black"/>
<circle cx="325" cy="111" r="1" fill="black"/>
<circle cx="325" cy="39" r="1" fill="black"/>
<circle cx="325" cy="75" r="1" fill="black"/>
<circle cx="325" cy="3" r="1" fill="black"/>
<circle cx="325" cy="325" r="1" fill="black"/>
<circle cx="325" cy="359" r="1" fill="black"/>
<circle cx="325" cy="393" r="1" fill="black"/>
<circle cx="343" cy="291" r="1" fill="black"/>
<circle cx="343" cy="255" r="1" fill="black"/>
<circle cx="343" cy="219" r="1" fill="black"/>
<circle cx="343" cy="183" r="1" fill="black"/>
<circle cx="343" cy="147" r="1" fill="black"/>
<circle cx="343" cy="111" r="1" fill="black"/>
<circle cx="343" cy="39" r="1" fill="black"/>
<circle cx="343" cy="75" r="1" fill="black"/>
<circle cx="343" cy="3" r="1" fill="black"/>
<circle cx="343" cy="325" r="1" fill="black"/>
<circle cx="343" cy="359" r="1" fill="black"/>
<circle cx="343" cy="393" r="1" fill="black"/>
<circle cx="361" cy="291" r="1" fill="black"/>
<circle cx="361" cy="255" r="1" fill="black"/>
<circle cx="361" cy="219" r="1" fill="black"/>
<circle cx="361" cy="183" r="1" fill="black"/>
<circle cx="361" cy="147" r="1" fill="black"/>
<circle cx="361" cy="111" r="1" fill="black"/>
<circle cx="361" cy="39" r="1" fill="black"/>
<circle cx="361" cy="75" r="1" fill="black"/>
<circle cx="361" cy="3" r="1" fill="black"/>
<circle cx="361" cy="325" r="1" fill="black"/>
<circle cx="361" cy="359" r="1" fill="black"/>
<circle cx="379" cy="359" r="1" fill="black"/>
<circle cx="361" cy="393" r="1" fill="black"/>
<circle cx="379" cy="393" r="1" fill="black"/>
<circle cx="37" cy="309" r="1" fill="black"/>
<circle cx="37" cy="273" r="1" fill="black"/>
<circle cx="37" cy="237" r="1" fill="black"/>
<circle cx="37" cy="201" r="1" fill="black"/>
<circle cx="37" cy="165" r="1" fill="black"/>
<circle cx="37" cy="129" r="1" fill="black"/>
<circle cx="37" cy="57" r="1" fill="black"/>
<circle cx="37" cy="93" r="1" fill="black"/>
<circle cx="37" cy="21" r="1" fill="black"/>
<circle cx="37" cy="343" r="1" fill="black"/>
<circle cx="19" cy="343" r="1" fill="black"/>
<circle cx="1" cy="343" r="1" fill="black"/>
<circle cx="37" cy="377" r="1" fill="black"/>
<circle cx="19" cy="377" r="1" fill="black"/>
<circle cx="1" cy="377" r="1" fill="black"/>
<circle cx="37" cy="411" r="1" fill="black"/>
<circle cx="19" cy="411" r="1" fill="black"/>
<circle cx="1" cy="411" r="1" fill="black"/>
<circle cx="55" cy="309" r="1" fill="black"/>
<circle cx="55" cy="273" r="1" fill="black"/>
<circle cx="55" cy="237" r="1" fill="black"/>
<circle cx="55" cy="201" r="1" fill="black"/>
<circle cx="55" cy="165" r="1" fill="black"/>
<circle cx="55" cy="129" r="1" fill="black"/>
<circle cx="55" cy="57" r="1" fill="black"/>
<circle cx="55" cy="93" r="1" fill="black"/>
<circle cx="55" cy="21" r="1" fill="black"/>
<circle cx="55" cy="343" r="1" fill="black"/>
<circle cx="55" cy="377" r="1" fill="black"/>
<circle cx="55" cy="411" r="1" fill="black"/>
<circle cx="73" cy="309" r="1" fill="black"/>
<circle cx="73" cy="273" r="1" fill="black"/>
<circle cx="73" cy="237" r="1" fill="black"/>
<circle cx="73" cy="201" r="1" fill="black"/>
<circle cx="73" cy="165" r="1" fill="black"/>
<circle cx="73" cy="129" r="1" fill="black"/>
<circle cx="73" cy="57" r="1" fill="black"/>
<circle cx="73" cy="93" r="1" fill="black"/>
<circle cx="73" cy="21" r="1" fill="black"/>
<circle cx="73" cy="343" r="1" fill="black"/>
<circle cx="73" cy="377" r="1" fill="black"/>
<circle cx="73" cy="411" r="1" fill="black"/>
<circle cx="91" cy="309" r="1" fill="black"/>
<circle cx="91" cy="273" r="1" fill="black"/>
<circle cx="91" cy="237" r="1" fill="black"/>
<circle cx="91" cy="201" r="1" fill="black"/>
<circle cx="91" cy="165" r="1" fill="black"/>
<circle cx="91" cy="129" r="1" fill="black"/>
<circle cx="91" cy="57" r="1" fill="black"/>
<circle cx="91" cy="93" r="1" fill="black"/>
<circle cx="91" cy="21" r="1" fill="black"/>
<circle cx="91" cy="343" r="1" fill="black"/>
<circle cx="91" cy="377" r="1" fill="black"/>
<circle cx="91" cy="411" r="1" fill="black"/>
<circle cx="109" cy="309" r="1" fill="black"/>
<circle cx="109" cy="273" r="1" fill="black"/>
<circle cx="109" cy="237" r="1" fill="black"/>
<circle cx="109" cy="201" r="1" fill="black"/>
<circle cx="109" cy="165" r="1" fill="black"/>
<circle cx="109" cy="129" r="1" fill="black"/>
<circle cx="109" cy="57" r="1" fill="black"/>
<circle cx="109" cy="93" r="1" fill="black"/>
<circle cx="109" cy="21" r="1" fill="black"/>
<circle cx="109" cy="343" r="1" fill="black"/>
<circle cx="109" cy="377" r="1" fill="black"/>
<circle cx="109" cy="411" r="1" fill="black"/>
<circle cx="127" cy="309" r="1" fill="black"/>
<circle cx="127" cy="273" r="1" fill="black"/>
<circle cx="127" cy="237" r="1" fill="black"/>
<circle cx="127" cy="201" r="1" fill="black"/>
<circle cx="127" cy="165" r="1" fill="black"/>
<circle cx="127" cy="129" r="1" fill="black"/>
<circle cx="127" cy="57" r="1" fill="black"/>
<circle cx="127" cy="93" r="1" fill="black"/>
<circle cx="127" cy="21" r="1" fill="black"/>
<circle cx="127" cy="343" r="1" fill="black"/>
<circle cx="127" cy="377" r="1" fill="black"/>
<circle cx="127" cy="411" r="1" fill="black"/>
<circle cx="145" cy="309" r="1" fill="black"/>
<circle cx="145" cy="273" r="1" fill="black"/>
<circle cx="145" cy="237" r="1" fill="black"/>
<circle cx="145" cy="201" r="1" fill="black"/>
<circle cx="145" cy="165" r="1" fill="black"/>
<circle cx="145" cy="129" r="1" fill="black"/>
<circle cx="145" cy="57" r="1" fill="black"/>
<circle cx="145" cy="93" r="1" fill="black"/>
<circle cx="145" cy="21" r="1" fill="black"/>
<circle cx="145" cy="343" r="1" fill="black"/>
<circle cx="145" cy="377" r="1" fill="black"/>
<circle cx="145" cy="411" r="1" fill="black"/>
<circle cx="163" cy="309" r="1" fill="black"/>
<circle cx="163" cy="273" r="1" fill="black"/>
<circle cx="163" cy="237" r="1" fill="black"/>
<circle cx="163" cy="201" r="1" fill="black"/>
<circle cx="163" cy="165" r="1" fill="black"/>
<circle cx="163" cy="129" r="1" fill="black"/>
<circle cx="163" cy="57" r="1" fill="black"/>
<circle cx="163" cy="93" r="1" fill="black"/>
<circle cx="163" cy="21" r="1" fill="black"/>
<circle cx="163" cy="343" r="1" fill="black"/>
<circle cx="163" cy="377" r="1" fill="black"/>
<circle cx="163" cy="411" r="1" fill="black"/>
<circle cx="181" cy="309" r="1" fill="black"/>
<circle cx="181" cy="273" r="1" fill="black"/>
<circle cx="181" cy="237" r="1" fill="black"/>
<circle cx="181" cy="201" r="1" fill="black"/>
<circle cx="181" cy="165" r="1" fill="black"/>
<circle cx="181" cy="129" r="1" fill="black"/>
<circle cx="181" cy="57" r="1" fill="black"/>
<circle cx="181" cy="93" r="1" fill="black"/>
<circle cx="181" cy="21" r="1" fill="black"/>
<circle cx="181" cy="343" r="1" fill="black"/>
<circle cx="181" cy="377" r="1" fill="black"/>
<circle cx="181" cy="411" r="1" fill="black"/>
<circle cx="199" cy="309" r="1" fill="black"/>
<circle cx="199" cy="273" r="1" fill="black"/>
<circle cx="199" cy="237" r="1" fill="black"/>
<circle cx="199" cy="201" r="1" fill="black"/>
<circle cx="199" cy="165" r="1" fill="black"/>
<circle cx="199" cy="129" r="1" fill="black"/>
<circle cx="199" cy="57" r="1" fill="black"/>
<circle cx="199" cy="93" r="1" fill="black"/>
<circle cx="199" cy="21" r="1" fill="black"/>
<circle cx="199" cy="343" r="1" fill="black"/>
<circle cx="199" cy="377" r="1" fill="black"/>
<circle cx="199" cy="411" r="1" fill="black"/>
<circle cx="217" cy="309" r="1" fill="black"/>
<circle cx="217" cy="273" r="1" fill="black"/>
<circle cx="217" cy="237" r="1" fill="black"/>
<circle cx="217" cy="201" r="1" fill="black"/>
<circle cx="217" cy="165" r="1" fill="black"/>
<circle cx="217" cy="129" r="1" fill="black"/>
<circle cx="217" cy="57" r="1" fill="black"/>
<circle cx="217" cy="93" r="1" fill="black"/>
<circle cx="217" cy="21" r="1" fill="black"/>
<circle cx="217" cy="343" r="1" fill="black"/>
<circle cx="217" cy="377" r="1" fill="black"/>
<circle cx="217" cy="411" r="1" fill="black"/>
<circle cx="235" cy="309" r="1" fill="black"/>
<circle cx="235" cy="273" r="1" fill="black"/>
<circle cx="235" cy="237" r="1" fill="black"/>
<circle cx="235" cy="201" r="1" fill="black"/>
<circle cx="235" cy="165" r="1" fill="black"/>
<circle cx="235" cy="129" r="1" fill="black"/>
<circle cx="235" cy="57" r="1" fill="black"/>
<circle cx="235" cy="93" r="1" fill="black"/>
<circle cx="235" cy="21" r="1" fill="black"/>
<circle cx="235" cy="343" r="1" fill="black"/>
<circle cx="235" cy="377" r="1" fill="black"/>
<circle cx="235" cy="411" r="1" fill="black"/>
<circle cx="253" cy="309" r="1" fill="black"/>
<circle cx="253" cy="273" r="1" fill="black"/>
<circle cx="253" cy="237" r="1" fill="black"/>
<circle cx="253" cy="201" r="1" fill="black"/>
<circle cx="253" cy="165" r="1" fill="black"/>
<circle cx="253" cy="129" r="1" fill="black"/>
<circle cx="253" cy="57" r="1" fill="black"/>
<circle cx="253" cy="93" r="1" fill="black"/>
<circle cx="253" cy="21" r="1" fill="black"/>
<circle cx="253" cy="343" r="1" fill="black"/>
<circle cx="253" cy="377" r="1" fill="black"/>
<circle cx="253" cy="411" r="1" fill="black"/>
<circle cx="271" cy="309" r="1" fill="black"/>
<circle cx="271" cy="273" r="1" fill="black"/>
<circle cx="271" cy="237" r="1" fill="black"/>
<circle cx="271" cy="201" r="1" fill="black"/>
<circle cx="271" cy="165" r="1" fill="black"/>
<circle cx="271" cy="129" r="1" fill="black"/>
<circle cx="271" cy="57" r="1" fill="black"/>
<circle cx="271" cy="93" r="1" fill="black"/>
<circle cx="271" cy="21" r="1" fill="black"/>
<circle cx="271" cy="343" r="1" fill="black"/>
<circle cx="271" cy="377" r="1" fill="black"/>
<circle cx="271" cy="411" r="1" fill="black"/>
<circle cx="289" cy="309" r="1" fill="black"/>
<circle cx="289" cy="273" r="1" fill="black"/>
<circle cx="289" cy="237" r="1" fill="black"/>
<circle cx="289" cy="201" r="1" fill="black"/>
<circle cx="289" cy="165" r="1" fill="black"/>
<circle cx="289" cy="129" r="1" fill="black"/>
<circle cx="289" cy="57" r="1" fill="black"/>
<circle cx="289" cy="93" r="1" fill="black"/>
<circle cx="289" cy="21" r="1" fill="black"/>
<circle cx="289" cy="343" r="1" fill="black"/>
<circle cx="289" cy="377" r="1" fill="black"/>
<circle cx="289" cy="411" r="1" fill="black"/>
<circle cx="307" cy="309" r="1" fill="black"/>
<circle cx="307" cy="273" r="1" fill="black"/>
<circle cx="307" cy="237" r="1" fill="black"/>
<circle cx="307" cy="201" r="1" fill="black"/>
<circle cx="307" cy="165" r="1" fill="black"/>
<circle cx="307" cy="129" r="1" fill="black"/>
<circle cx="307" cy="57" r="1" fill="black"/>
<circle cx="307" cy="93" r="1" fill="black"/>
<circle cx="307" cy="21" r="1" fill="black"/>
<circle cx="307" cy="343" r="1" fill="black"/>
<circle cx="307" cy="377" r="1" fill="black"/>
<circle cx="307" cy="411" r="1" fill="black"/>
<circle cx="325" cy="309" r="1" fill="black"/>
<circle cx="325" cy="273" r="1" fill="black"/>
<circle cx="325" cy="237" r="1" fill="black"/>
<circle cx="325" cy="201" r="1" fill="black"/>
<circle cx="325" cy="165" r="1" fill="black"/>
<circle cx="325" cy="129" r="1" fill="black"/>
<circle cx="325" cy="57" r="1" fill="black"/>
<circle cx="325" cy="93" r="1" fill="black"/>
<circle cx="325" cy="21" r="1" fill="black"/>
<circle cx="325" cy="343" r="1" fill="black"/>
<circle cx="325" cy="377" r="1" fill="black"/>
<circle cx="325" cy="411" r="1" fill="black"/>
<circle cx="343" cy="309" r="1" fill="black"/>
<circle cx="343" cy="273" r="1" fill="black"/>
<circle cx="343" cy="237" r="1" fill="black"/>
<circle cx="343" cy="201" r="1" fill="black"/>
<circle cx="343" cy="165" r="1" fill="black"/>
<circle cx="343" cy="129" r="1" fill="black"/>
<circle cx="343" cy="57" r="1" fill="black"/>
<circle cx="343" cy="93" r="1" fill="black"/>
<circle cx="343" cy="21" r="1" fill="black"/>
<circle cx="343" cy="343" r="1" fill="black"/>
<circle cx="343" cy="377" r="1" fill="black"/>
<circle cx="343" cy="411" r="1" fill="black"/>
<circle cx="361" cy="309" r="1" fill="black"/>
<circle cx="361" cy="273" r="1" fill="black"/>
<circle cx="361" cy="237" r="1" fill="black"/>
<circle cx="361" cy="201" r="1" fill="black"/>
<circle cx="361" cy="165" r="1" fill="black"/>
<circle cx="361" cy="129" r="1" fill="black"/>
<circle cx="361" cy="57" r="1" fill="black"/>
<circle cx="361" cy="93" r="1" fill="black"/>
<circle cx="361" cy="21" r="1" fill="black"/>
<circle cx="361" cy="343" r="1" fill="black"/>
<circle cx="379" cy="343" r="1" fill="black"/>
<circle cx="361" cy="377" r="1" fill="black"/>
<circle cx="379" cy="377" r="1" fill="black"/>
<circle cx="361" cy="411" r="1" fill="black"/>
<circle cx="379" cy="411" r="1" fill="black"/>
<circle cx="55" cy="75" r="1" fill="black"/>
<circle cx="55" cy="3" r="1" fill="black"/>
<circle cx="73" cy="75" r="1" fill="black"/>
<circle cx="73" cy="3" r="1" fill="black"/>
<circle cx="91" cy="75" r="1" fill="black"/>
<circle cx="91" cy="3" r="1" fill="black"/>
<circle cx="109" cy="75" r="1" fill="black"/>
<circle cx="109" cy="3" r="1" fill="black"/>
<circle cx="379" cy="291" r="1" fill="black"/>
<circle cx="379" cy="255" r="1" fill="black"/>
<circle cx="379" cy="219" r="1" fill="black"/>
<circle cx="379" cy="183" r="1" fill="black"/>
<circle cx="379" cy="147" r="1" fill="black"/>
<circle cx="379" cy="111" r="1" fill="black"/>
<circle cx="379" cy="39" r="1" fill="black"/>
<circle cx="379" cy="75" r="1" fill="black"/>
<circle cx="379" cy="3" r="1" fill="black"/>
<circle cx="1" cy="291" r="1" fill="black"/>
<circle cx="1" cy="255" r="1" fill="black"/>
<circle cx="1" cy="219" r="1" fill="black"/>
<circle cx="1" cy="183" r="1" fill="black"/>
<circle cx="1" cy="147" r="1" fill="black"/>
<circle cx="1" cy="111" r="1" fill="black"/>
<circle cx="1" cy="39" r="1" fill="black"/>
<circle cx="397" cy="291" r="1" fill="black"/>
<circle cx="397" cy="255" r="1" fill="black"/>
<circle cx="397" cy="219" r="1" fill="black"/>
<circle cx="397" cy="183" r="1" fill="black"/>
<circle cx="397" cy="147" r="1" fill="black"/>
<circle cx="397" cy="111" r="1" fill="black"/>
<circle cx="397" cy="39" r="1" fill="black"/>
<circle cx="397" cy="75" r="1" fill="black"/>
<circle cx="397" cy="3" r="1" fill="black"/>
<circle cx="19" cy="291" r="1" fill="black"/>
<circle cx="19" cy="255" r="1" fill="black"/>
<circle cx="19" cy="219" r="1" fill="black"/>
<circle cx="19" cy="183" r="1" fill="black"/>
<circle cx="19" cy="147" r="1" fill="black"/>
<circle cx="19" cy="111" r="1" fill="black"/>
<circle cx="19" cy="39" r="1" fill="black"/>
<circle cx="379" cy="325" r="1" fill="black"/>
<circle cx="1" cy="325" r="1" fill="black"/>
<circle cx="397" cy="325" r="1" fill="black"/>
<circle cx="19" cy="325" r="1" fill="black"/>
<circle cx="379" cy="309" r="1" fill="black"/>
<circle cx="379" cy="273" r="1" fill="black"/>
<circle cx="379" cy="237" r="1" fill="black"/>
<circle cx="379" cy="201" r="1" fill="black"/>
<circle cx="379" cy="165" r="1" fill="black"/>
<circle cx="379" cy="129" r="1" fill="black"/>
<circle cx="379" cy="57" r="1" fill="black"/>
<circle cx="379" cy="93" r="1" fill="black"/>
<circle cx="379" cy="21" r="1" fill="black"/>
<circle cx="1" cy="309" r="1" fill="black"/>
<circle cx="1" cy="273" r="1" fill="black"/>
<circle cx="1" cy="237" r="1" fill="black"/>
<circle cx="1" cy="201" r="1" fill="black"/>
<circle cx="1" cy="165" r="1" fill="black"/>
<circle cx="1" cy="129" r="1" fill="black"/>
<circle cx="1" cy="57" r="1" fill="black"/>
<circle cx="1" cy="93" r="1" fill="black"/>
<circle cx="1" cy="21" r="1" fill="black"/>
<circle cx="397" cy="309" r="1" fill="black"/>
<circle cx="397" cy="273" r="1" fill="black"/>
<circle cx="397" cy="237" r="1" fill="black"/>
<circle cx="397" cy="201" r="1" fill="black"/>
<circle cx="397" cy="165" r="1" fill="black"/>
<circle cx="397" cy="129" r="1" fill="black"/>
<circle cx="397" cy="57" r="1" fill="black"/>
<circle cx="397" cy="93" r="1" fill="black"/>
<circle cx="397" cy="21" r="1" fill="black"/>
<circle cx="19" cy="309" r="1" fill="black"/>
<circle cx="19" cy="273" r="1" fill="black"/>
<circle cx="19" cy="237" r="1" fill="black"/>
<circle cx="19" cy="201" r="1" fill="black"/>
<circle cx="19" cy="165" r="1" fill="black"/>
<circle cx="19" cy="129" r="1" fill="black"/>
<circle cx="19" cy="57" r="1" fill="black"/>
<circle cx="19" cy="93" r="1" fill="black"/>
<circle cx="19" cy="21" r="1" fill="black"/>
<circle cx="1" cy="75" r="1" fill="black"/>
<circle cx="1" cy="3" r="1" fill="black"/>
<circle cx="19" cy="75" r="1" fill="black"/>
<circle cx="19" cy="3" r="1" fill="black"/>
</svg>
