<svg width="20" height="20" viewBox="0 0 20 20" fill="none" xmlns="http://www.w3.org/2000/svg">
<g clip-path="url(#clip0_889_13022)">
<path d="M11.8818 6.40794H17.5725V4.43058C17.5725 2.85917 16.2987 1.58526 14.7271 1.58526C13.1554 1.58526 11.8818 2.85917 11.8818 4.43058V6.40794ZM9.68423 16.4204C6.31803 16.4204 3.57934 13.6817 3.57934 10.3154H-0.000228882C-0.000228882 15.6555 4.34426 20 9.68423 20C15.0242 20 19.3688 15.6555 19.3688 10.3154H15.7892C15.7892 13.6817 13.0505 16.4204 9.68423 16.4204ZM1.79592 6.40794H7.48681V2.84532C7.48681 1.27392 6.21302 0 4.64137 0C3.06972 0 1.79592 1.27392 1.79592 2.84532V6.40794Z" fill="black"/>
</g>
<defs>
<clipPath id="clip0_889_13022">
<rect width="19.37" height="20" fill="white"/>
</clipPath>
</defs>
</svg>
