<svg width="30" height="30" viewBox="0 0 30 30" fill="none" xmlns="http://www.w3.org/2000/svg">
<path d="M12.8639 4.82452L2.27643 22.4995C2.05814 22.8776 1.94264 23.3062 1.94142 23.7427C1.94019 24.1792 2.05329 24.6084 2.26946 24.9877C2.48563 25.3669 2.79734 25.683 3.17356 25.9043C3.54979 26.1257 3.97743 26.2447 4.41393 26.2495H25.5889C26.0254 26.2447 26.4531 26.1257 26.8293 25.9043C27.2055 25.683 27.5172 25.3669 27.7334 24.9877C27.9496 24.6084 28.0627 24.1792 28.0614 23.7427C28.0602 23.3062 27.9447 22.8776 27.7264 22.4995L17.1389 4.82452C16.9161 4.45716 16.6023 4.15342 16.2279 3.94263C15.8535 3.73183 15.4311 3.62109 15.0014 3.62109C14.5718 3.62109 14.1493 3.73183 13.7749 3.94263C13.4005 4.15342 13.0868 4.45716 12.8639 4.82452V4.82452Z" stroke="black" stroke-width="1.33333" stroke-linecap="round" stroke-linejoin="round"/>
<path d="M15 11.25V16.25" stroke="black" stroke-width="1.33333" stroke-linecap="round" stroke-linejoin="round"/>
<path d="M15 21.25H15.0075" stroke="black" stroke-width="1.33333" stroke-linecap="round" stroke-linejoin="round"/>
</svg>
