<svg width="18" height="20" viewBox="0 0 18 20" fill="none" xmlns="http://www.w3.org/2000/svg">
<path d="M8.61523 0C11.927 5.48961e-05 14.62 2.69371 14.6201 6.00488C14.6201 6.68371 14.5054 7.33628 14.2969 7.94531H17.2305L11.5781 20H5.65234L0 7.94531H2.93359C2.72505 7.33626 2.61035 6.68373 2.61035 6.00488C2.6105 2.69368 5.304 0 8.61523 0ZM10.6084 11.668C9.98425 11.8883 9.31385 12.0107 8.61523 12.0107C7.91632 12.0107 7.24546 11.8885 6.62109 11.668L8.61523 16.6621L10.6084 11.668ZM8.61523 4.24609C7.64419 4.24609 6.85659 5.03387 6.85645 6.00488C6.85645 6.97602 7.6441 7.76465 8.61523 7.76465C9.58632 7.76459 10.374 6.97599 10.374 6.00488C10.3739 5.0339 9.58684 4.24615 8.61523 4.24609Z" fill="black"/>
</svg>
