<svg width="17" height="20" viewBox="0 0 17 20" fill="none" xmlns="http://www.w3.org/2000/svg">
<path d="M16.75 16.25C16.75 18.04 15.29 19.5 13.5 19.5C11.71 19.5 10.25 18.04 10.25 16.25C10.25 16.01 10.28 15.77 10.33 15.54L10.4 15.2L5.8 12.32L5.52 12.54C4.94 13.01 4.24 13.25 3.5 13.25C1.71 13.25 0.25 11.79 0.25 10C0.25 8.21 1.71 6.75 3.5 6.75C4.24 6.75 4.94 6.99 5.52 7.46L5.8 7.68L10.4 4.8L10.33 4.46C10.28 4.22 10.25 3.99 10.25 3.75C10.25 1.96 11.71 0.5 13.5 0.5C15.29 0.5 16.75 1.96 16.75 3.75C16.75 5.54 15.29 7 13.5 7C12.76 7 12.06 6.76 11.48 6.29L11.2 6.07L6.6 8.95L6.67 9.29C6.72 9.53 6.75 9.76 6.75 10C6.75 10.24 6.72 10.47 6.67 10.71L6.6 11.05L11.2 13.93L11.48 13.71C12.06 13.24 12.76 13 13.5 13C15.29 13 16.75 14.46 16.75 16.25Z" fill="black"/>
</svg>
